<?xml version="1.0" encoding="UTF-8" standalone="no"?>
<!-- Created with Inkscape (http://www.inkscape.org/) -->

<svg
   width="131.46461mm"
   height="35.443287mm"
   viewBox="0 0 131.46463 35.443287"
   version="1.1"
   id="svg1"
   xml:space="preserve"
   xmlns="http://www.w3.org/2000/svg"
   xmlns:svg="http://www.w3.org/2000/svg"><defs
     id="defs1" /><g
     id="layer1"
     transform="translate(-40.282041,-69.544185)"><rect
       style="fill:#ffffff;stroke:#4078ff;stroke-width:0.83301;stroke-dasharray:none;stroke-opacity:1"
       id="rect33"
       width="138.50253"
       height="58.209713"
       x="37.859165"
       y="57.906307" /><g
       id="g2"
       transform="matrix(0.80896026,0,0,0.80896026,54.520804,-2.2770084)"><text
         xml:space="preserve"
         style="font-size:61.736px;font-family:'More Pepper';-inkscape-font-specification:'More Pepper, Normal';text-align:center;text-orientation:upright;text-anchor:middle;fill:#ffffff;stroke-width:3"
         x="91.433594"
         y="113.43682"
         id="text1"><tspan
           id="tspan1"
           style="font-style:normal;font-variant:normal;font-weight:normal;font-stretch:condensed;font-size:25.4px;font-family:Impact;-inkscape-font-specification:'Impact, Condensed';font-variant-ligatures:normal;font-variant-caps:normal;font-variant-numeric:normal;font-variant-east-asian:normal;fill:#000000;stroke-width:3"
           x="91.433594"
           y="113.43682">RANDHER</tspan></text><text
         xml:space="preserve"
         style="font-style:normal;font-variant:normal;font-weight:bold;font-stretch:normal;font-size:14.1111px;font-family:Alexandria;-inkscape-font-specification:'Alexandria, Bold';font-variant-ligatures:normal;font-variant-caps:normal;font-variant-numeric:normal;font-variant-east-asian:normal;text-align:center;text-orientation:upright;text-anchor:middle;fill:#ffffff;stroke-width:3"
         x="91.147095"
         y="125.6077"
         id="text2"><tspan
           id="tspan2"
           style="font-style:normal;font-variant:normal;font-weight:bold;font-stretch:normal;font-size:14.1111px;font-family:Alexandria;-inkscape-font-specification:'Alexandria, Bold';font-variant-ligatures:normal;font-variant-caps:normal;font-variant-numeric:normal;font-variant-east-asian:normal;fill:#000000;stroke-width:3"
           x="91.147095"
           y="125.6077">Data science</tspan></text></g><path
       style="fill:#3366cc;stroke:#4078ff;stroke-width:0.117578;stroke-dasharray:none;stroke-opacity:1"
       d="m 44.878421,92.975223 2.661475,-1.536595 2.685259,1.550337 v 3.064351 l -2.622633,1.51418 -2.744783,-1.584697 z"
       id="path2" /><path
       style="fill:none;stroke:#4078ff;stroke-width:0.117578;stroke-dasharray:none;stroke-opacity:1"
       d="m 47.560578,88.431046 2.661474,-1.536594 2.685259,1.550336 v 3.064353 l -2.622631,1.51418 -2.744784,-1.584693 z"
       id="path33" /><path
       style="fill:none;stroke:#4078ff;stroke-width:0.117578;stroke-dasharray:none;stroke-opacity:1"
       d="m 50.28468,93.023321 2.661474,-1.536594 2.68526,1.550336 v 3.064346 L 53.008781,97.615588 50.263997,96.0309 Z"
       id="path33-0" /><path
       style="fill:none;stroke:#4078ff;stroke-width:0.117578;stroke-dasharray:none;stroke-opacity:1"
       d="m 52.907311,88.444788 2.661476,-1.536594 2.685259,1.550336 v 3.064354 L 55.631413,93.037063 52.88663,91.45237 Z"
       id="path33-6" /><path
       style="fill:#3366cc;stroke:#4078ff;stroke-width:0.117578;stroke-dasharray:none;stroke-opacity:1"
       d="m 55.652096,93.093834 2.661473,-1.536593 2.685261,1.550336 v 3.064349 l -2.622633,1.51418 -2.744783,-1.584697 z"
       id="path33-60" /><path
       style="fill:none;stroke:#4078ff;stroke-width:0.117578;stroke-dasharray:none;stroke-opacity:1"
       d="m 50.222052,83.830098 2.661474,-1.536594 2.685261,1.550337 v 3.064353 l -2.622633,1.51418 -2.744784,-1.584693 z"
       id="path33-01" /><path
       style="fill:none;stroke:#4078ff;stroke-width:0.117578;stroke-dasharray:none;stroke-opacity:1"
       d="m 58.254046,88.45853 2.661473,-1.536594 2.68526,1.550336 v 3.064354 l -2.622631,1.514179 -2.744785,-1.584692 z"
       id="path33-2" /><path
       style="fill:none;stroke:#4078ff;stroke-width:0.117578;stroke-dasharray:none;stroke-opacity:1"
       d="m 55.470419,83.831897 2.661474,-1.536593 2.68526,1.550338 v 3.064351 l -2.622633,1.51418 -2.744783,-1.584692 z"
       id="path2-0" /><path
       style="fill:none;stroke:#4078ff;stroke-width:0.117578;stroke-dasharray:none;stroke-opacity:1"
       d="m 58.152575,79.28772 2.661474,-1.536592 2.685261,1.550338 v 3.06435 l -2.622633,1.51418 -2.744784,-1.584692 z"
       id="path33-4" /><path
       style="fill:#3366cc;stroke:#4078ff;stroke-width:0.117578;stroke-dasharray:none;stroke-opacity:1"
       d="m 60.876677,83.879996 2.661474,-1.536593 2.68526,1.550335 v 3.064355 l -2.622632,1.514179 -2.744784,-1.584691 z"
       id="path33-0-6" /><path
       style="fill:none;stroke:#4078ff;stroke-width:0.117578;stroke-dasharray:none;stroke-opacity:1"
       d="m 63.49931,79.301466 2.661474,-1.536597 2.685259,1.550338 v 3.06435 l -2.622632,1.514181 -2.744784,-1.584692 z"
       id="path33-6-7" /><path
       style="fill:none;stroke:#4078ff;stroke-width:0.117578;stroke-dasharray:none;stroke-opacity:1"
       d="m 66.244094,83.950508 2.661474,-1.536593 2.685259,1.550339 v 3.06435 l -2.622631,1.51418 -2.744785,-1.584691 z"
       id="path33-60-6" /><path
       style="fill:#3366cc;stroke:#4078ff;stroke-width:0.117578;stroke-dasharray:none;stroke-opacity:1"
       d="m 60.814049,74.686774 2.661475,-1.536594 2.68526,1.550337 v 3.064352 l -2.622633,1.51418 -2.744784,-1.584693 z"
       id="path33-01-0" /><path
       style="fill:none;stroke:#4078ff;stroke-width:0.117578;stroke-dasharray:none;stroke-opacity:1"
       d="m 68.846043,79.315207 2.661474,-1.536597 2.68526,1.550339 v 3.064354 l -2.62263,1.514176 -2.744786,-1.584692 z"
       id="path33-2-9" /><path
       style="fill:none;stroke:#4078ff;stroke-width:0.117578;stroke-dasharray:none;stroke-opacity:1"
       d="m 58.337355,97.708522 2.661475,-1.536596 2.685258,1.55034 v 3.064354 l -2.622632,1.51418 -2.744783,-1.58469 z"
       id="path2-7" /><path
       style="fill:none;stroke:#4078ff;stroke-width:0.117578;stroke-dasharray:none;stroke-opacity:1"
       d="m 61.019511,93.164348 2.661475,-1.536594 2.685259,1.550336 v 3.064345 l -2.622632,1.514179 -2.744783,-1.584688 z"
       id="path33-8" /><path
       style="fill:none;stroke:#4078ff;stroke-width:0.117578;stroke-dasharray:none;stroke-opacity:1"
       d="m 63.743613,97.756614 2.661475,-1.536587 2.685259,1.550332 v 3.064351 l -2.622632,1.51419 -2.744785,-1.5847 z"
       id="path33-0-5" /><path
       style="fill:#3366cc;stroke:#4078ff;stroke-width:0.117578;stroke-dasharray:none;stroke-opacity:1"
       d="m 66.366245,93.17809 2.661475,-1.536595 2.68526,1.550337 v 3.064347 l -2.622633,1.51418 -2.744784,-1.584689 z"
       id="path33-6-3" /><path
       style="fill:none;stroke:#4078ff;stroke-width:0.117578;stroke-dasharray:none;stroke-opacity:1"
       d="m 69.11103,97.827132 2.661473,-1.536596 2.685261,1.55034 v 3.064354 l -2.622635,1.51417 -2.744782,-1.58469 z"
       id="path33-60-3" /><path
       style="fill:#3366cc;stroke:#4078ff;stroke-width:0.117578;stroke-dasharray:none;stroke-opacity:1"
       d="m 63.680986,88.563399 2.661474,-1.536593 2.68526,1.550337 v 3.064352 l -2.622632,1.514181 -2.744784,-1.584694 z"
       id="path33-01-8" /><path
       style="fill:none;stroke:#4078ff;stroke-width:0.117578;stroke-dasharray:none;stroke-opacity:1"
       d="m 71.71298,93.191832 2.661474,-1.536594 2.68526,1.550336 v 3.06435 l -2.622635,1.514179 -2.744783,-1.584697 z"
       id="path33-2-3" /><path
       style="fill:none;stroke:#4078ff;stroke-width:0.117578;stroke-dasharray:none;stroke-opacity:1"
       d="m 68.929354,88.565202 2.661473,-1.536591 2.68526,1.550333 v 3.064355 l -2.62263,1.51418 -2.744785,-1.584692 z"
       id="path2-78" /><path
       style="fill:#3366cc;stroke:#4078ff;stroke-width:0.117578;stroke-dasharray:none;stroke-opacity:1"
       d="m 71.611511,84.021027 2.661474,-1.536595 2.68526,1.550336 v 3.064354 l -2.622634,1.51418 -2.744784,-1.584691 z"
       id="path33-7" /><path
       style="fill:none;stroke:#4078ff;stroke-width:0.117578;stroke-dasharray:none;stroke-opacity:1"
       d="m 74.335611,88.613302 2.661473,-1.536592 2.685264,1.550333 v 3.064356 l -2.622634,1.514175 -2.744784,-1.584692 z"
       id="path33-0-4" /><path
       style="fill:none;stroke:#4078ff;stroke-width:0.117578;stroke-dasharray:none;stroke-opacity:1"
       d="m 76.958245,84.034768 2.661474,-1.536594 2.68526,1.550337 v 3.064353 l -2.622635,1.514179 -2.744783,-1.584691 z"
       id="path33-6-1" /><path
       style="fill:none;stroke:#4078ff;stroke-width:0.117578;stroke-dasharray:none;stroke-opacity:1"
       d="m 79.703029,88.683815 2.661473,-1.536593 2.685261,1.550334 v 3.064355 l -2.622631,1.514179 -2.744784,-1.584691 z"
       id="path33-60-9" /><path
       style="fill:none;stroke:#4078ff;stroke-width:0.117578;stroke-dasharray:none;stroke-opacity:1"
       d="m 74.272985,79.420078 2.661473,-1.536593 2.685261,1.550337 v 3.064352 l -2.622635,1.514181 -2.744783,-1.584694 z"
       id="path33-01-09" /><path
       style="fill:#3366cc;stroke:#4078ff;stroke-width:0.117578;stroke-dasharray:none;stroke-opacity:1"
       d="m 82.304979,84.048511 2.661474,-1.536594 2.685259,1.550336 v 3.064352 l -2.622635,1.51418 -2.744783,-1.584692 z"
       id="path33-2-8" /></g></svg>
